<svg xmlns="http://www.w3.org/2000/svg" viewBox="0 0 159 21" class="design-iconfont">
  <g fill="currentColor" fill-rule="nonzero">
    <path d="M0.0016011513,10.9124693 C-0.0193990434,9.39458783 0.166872684,8.25995676 0.519255951,7.14401571 C0.859959009,6.07022801 1.38301552,5.06312352 2.06550029,4.16684289 C2.78244693,3.217432 3.64408492,2.38898122 4.68170454,1.72328059 C5.92953611,0.92233983 7.30518887,0.391249329 8.80866281,0.130009082 C9.75367157,-0.0323210714 10.7051904,-0.0333710723 11.6585992,0.0756190306 C12.8892106,0.216319163 14.0561915,0.547279476 15.1509316,1.07206997 C16.8166671,1.87007073 18.1711796,2.98412178 19.186539,4.43501315 C20.0710672,5.69879434 20.6206423,7.07366564 20.8552145,8.55269704 C21.1040668,10.1222385 21.0341362,11.6817 20.6298824,13.2258315 C20.2867392,14.5368627 19.7090239,15.7582238 18.858936,16.8624049 C17.992468,17.9880059 16.9456082,18.9537969 15.6421262,19.6661175 C14.3430541,20.3759182 12.9484312,20.8421186 11.4290671,20.9592988 C10.5151386,21.0302788 9.60205016,21.0174688 8.7005118,20.8482087 C7.45750545,20.6164033 6.26097154,20.1821615 5.15861896,19.5627974 C4.00759829,18.9178868 3.03150924,18.1011961 2.250722,17.0997051 C1.46426471,16.0917042 0.876889267,14.9938231 0.50623583,13.800812 C0.175482763,12.739261 0.00748120581,11.6586 0.0016011513,10.9124693 Z M5.53536246,18.1921261 L5.56014269,18.1734361 C5.53914249,18.1211461 5.52255234,18.068436 5.49945212,18.016566 C5.06978814,17.0652651 4.93769692,16.0795241 5.14013879,15.0692132 C5.40579126,13.7434819 6.06687739,12.5834408 7.05976659,11.5932899 C7.87352414,10.7816391 8.74671223,10.0182884 9.56970986,9.21524766 C10.1339851,8.66420714 10.6785201,8.0940566 11.1942849,7.50521605 C11.8996815,6.69986529 12.3245154,5.77544441 12.4631167,4.74896344 C12.5481675,4.11896285 12.5225472,3.50051227 12.2615148,2.8986517 C11.9437819,2.16596101 11.3696366,1.70753057 10.5334088,1.5210504 C9.92335314,1.38518027 9.30867744,1.4215103 8.70114181,1.5277704 C7.0501065,1.81694068 5.60844314,2.4832713 4.39295187,3.54587231 C3.74230561,4.11548098 3.17762433,4.776357 2.71650632,5.50790416 C2.08104043,6.51191511 1.72949717,7.60454614 1.53461536,8.74190722 C1.40189413,9.51638795 1.38299396,10.2959087 1.42142432,11.0783694 C1.46993476,12.0672604 1.68077672,13.0275913 2.02244989,13.9629321 C2.42308044,15.0627134 3.05506519,16.0637116 3.87571707,16.8983149 C4.33457132,17.3680854 4.838786,17.7939658 5.4217514,18.1373161 C5.45724173,18.1583161 5.4971421,18.1740661 5.53536246,18.1921261 Z M13.1794333,11.0101194 C13.0063917,11.0101194 12.8329301,11.0048694 12.6600985,11.0101194 C11.8858213,11.0374194 11.1167942,11.1069295 10.3660372,11.2915196 C9.47205896,11.5111798 8.6570414,11.8694402 7.96256496,12.4379107 C7.19458784,13.0666513 6.68407311,13.836722 6.45055094,14.7506429 C6.19854861,15.7313438 6.33735989,16.6744547 6.82645443,17.5761956 C7.36426941,18.5678165 8.21960734,19.2060071 9.4012883,19.4661973 C10.3074467,19.6663275 11.2234752,19.6398675 12.1344636,19.5014774 C13.4053954,19.3082772 14.5366759,18.8126767 15.5742955,18.1299661 C16.0894303,17.7910258 16.5520646,17.3995854 16.9831986,16.974965 C17.5033009,16.4643266 17.954235,15.8877259 18.324481,15.2598934 C18.3763515,15.1714833 18.3906316,15.0933632 18.3339311,14.9963431 C17.7544657,14.0055622 17.1783604,13.0131713 16.6056151,12.0191703 C16.4128333,11.68422 16.1400408,11.4345298 15.7494372,11.3009696 C15.577579,11.2405749 15.4022648,11.1905056 15.2244323,11.1510295 C14.551376,11.0103294 13.8663497,10.9973093 13.1804833,11.0103294 L13.1794333,11.0101194 Z M19.1117783,13.4352016 L19.1495787,13.4261716 C19.1562322,13.4148563 19.1617204,13.402895 19.1659588,13.3904716 C19.2709598,12.9450612 19.404731,12.5034308 19.4715117,12.0534003 C19.718264,10.3943988 19.6042329,8.75849723 19.0347076,7.15640572 C18.7432249,6.33740495 18.3391812,5.56733422 17.783516,4.87202356 C17.0446126,3.94189894 16.1255611,3.1704935 15.081421,2.60402142 C14.5267694,2.30232991 13.9420053,2.05964218 13.3367248,1.87994073 C13.248944,1.85369071 13.1567531,1.8400407 13.0517521,1.81694068 C15.0728109,5.70887435 17.0359091,9.59660802 19.1128283,13.4354116 L19.1117783,13.4352016 Z M11.2325053,9.73016815 C11.2383853,9.74003816 11.2442654,9.74990817 11.2503554,9.75977818 C12.6866752,9.63989184 14.1313423,9.6626833 15.5631654,9.82781824 C14.9331596,8.60792709 14.3092438,7.39328594 13.6311475,6.19880481 C13.6022829,6.23975854 13.5784514,6.28403687 13.5601669,6.33068494 C13.4266056,6.61397521 13.3115246,6.90587548 13.1582231,7.17887574 C12.7314992,7.93949646 12.1978842,8.63711712 11.6006387,9.29483774 C11.4735875,9.43574787 11.3549364,9.58484801 11.2325053,9.73016815 Z"/>
    <path d="M13.0873424,4.0718482 C12.8559932,3.37039539 12.4926453,2.71629997 12.0155851,2.14248092 C11.5253755,1.54041461 10.8265127,1.03153488 9.93659386,0.629617125 C9.04667501,0.227699372 7.93469542,0.0218785873 6.64171539,0.0218785873 C5.22974432,0.0218785873 4.00547742,0.305489905 3.00159532,0.863799041 C1.99771323,1.42210818 1.24689656,2.16030792 0.75417313,3.06381255 C0.258143611,3.96332248 -0.000890167282,4.96722063 2.29834939e-06,5.98662975 C0.00319808972,6.71320067 0.136739284,7.43372613 0.394686135,8.11614559 C0.663929127,8.83354297 1.07394226,9.49389369 1.60219373,10.0609089 C2.13849135,10.6435276 2.84321994,11.1143224 3.69710629,11.467621 C4.55099265,11.8209197 5.57247202,12 6.71378038,12 C8.10815418,12 9.32906922,11.7188196 10.3421689,11.1645621 C11.3552686,10.6103045 12.1203307,9.87453576 12.6323273,8.96697954 C13.1455522,8.05982103 13.412794,7.04173365 13.4091583,6.00769802 C13.4023066,5.35050711 13.2938465,4.69800062 13.0873424,4.0718482 Z M11.0996893,7.55621581 C11.0159333,8.17993056 10.8407142,8.78892572 10.579313,9.3648457 C10.2830505,10.0298881 9.80757361,10.6058143 9.2025365,11.0324802 C8.56316919,11.4935512 7.73358382,11.7269228 6.73556747,11.7269228 C5.73755113,11.7269228 4.8995861,11.5016544 4.25267711,11.0559795 C3.64058896,10.6456103 3.15611184,10.0812895 2.85159959,9.42399892 C2.58366739,8.84847375 2.40466458,8.23799297 2.32032976,7.61212776 C2.25110321,7.06769982 2.21556608,6.51975947 2.2139082,5.97123371 C2.20546581,5.07495111 2.31814799,4.18144256 2.54909421,3.31339051 C2.77111257,2.48304499 3.24472201,1.73582337 3.90911145,1.16766831 C4.59037701,0.583428996 5.53392563,0.287662908 6.71378038,0.287662908 C7.56766674,0.287662908 8.30591393,0.449726518 8.89751723,0.781956918 C9.48138866,1.10060928 9.96877477,1.56157819 10.3111642,2.1189817 C10.6498403,2.67889486 10.885453,3.29140105 11.0075132,3.92923222 C11.1369412,4.60263275 11.2006273,5.28630677 11.1977312,5.97123371 C11.1971036,6.5001515 11.1643666,7.02857755 11.0996893,7.55378486 L11.0996893,7.55621581 Z" transform="translate(31 4)"/>
    <path d="M29.0413584,11.4919306 C28.7402376,11.3234412 28.4949325,11.0755492 28.334116,10.7772301 C28.1941758,10.5227902 27.9846846,10.058478 27.6939107,9.35917348 L23.9130125,0 L23.5929099,0 L20.0164751,9.05854548 C19.8125162,9.6023736 19.5601818,10.1280777 19.2623066,10.6297522 C18.9975097,11.0519279 18.7167914,11.3363495 18.4017165,11.5000338 C18.1924843,11.6070941 17.9656876,11.6783712 17.7313445,11.7107165 L17.7313445,11.7666284 L21.288506,11.7666284 L21.288506,11.7204403 C21.0372189,11.6994585 20.7893995,11.6496802 20.5502589,11.5721521 C20.2812721,11.4822068 19.8296089,11.2237153 19.8296089,10.49686 C19.8296089,10.2416098 19.9217851,9.88669053 20.1203828,9.38024174 L20.5326616,8.31791478 L25.2470528,8.31791478 L25.9551333,10.0284962 C26.0474739,10.2528962 26.0957824,10.4919656 26.0975873,10.7334729 C26.0975873,11.171855 25.8637951,11.4943615 25.4548681,11.6167196 C25.1888778,11.6866026 24.9150909,11.7249688 24.6395282,11.7309744 L24.6395282,11.7666284 L29.8148002,11.7666284 L29.8148002,11.717199 C29.5436128,11.6948307 29.2802108,11.6181137 29.0413584,11.4919306 Z M20.5779117,8.23931393 L22.8487969,2.40502397 L25.2344833,8.23931393 L20.5779117,8.23931393 Z" transform="translate(31 4)"/>
    <path d="M43.1929118,7.1380917 C42.8592284,6.70265203 42.4421945,6.33321279 41.964455,6.04983456 C41.262161,5.64800514 40.5388715,5.28152323 39.7974775,4.9518536 C39.0173321,4.59855493 38.4399742,4.32142616 38.083839,4.12938078 C37.7101578,3.93358642 37.3807906,3.66743471 37.1151515,3.34661355 C36.8436948,3.00905469 36.6997063,2.59191288 36.7070625,2.16435951 C36.6927716,1.61958676 36.9339383,1.09776848 37.3631891,0.744682288 C37.7821716,0.391383618 38.3327146,0.212303329 38.9980589,0.212303329 C40.6672852,0.212303329 41.868927,1.15794449 42.5728177,3.02410696 L42.7404107,3.02410696 L42.7404107,0.39462489 L42.6138779,0.39462489 C42.5511334,0.677613626 42.4628077,0.954726668 42.349919,1.22276994 L42.0834461,1.82321561 L41.6451904,1.32649065 C41.2947364,0.9258026 40.8629244,0.598976513 40.3765113,0.366263759 C39.9050493,0.139416075 39.3855567,0.0215253974 38.8589567,0.0218785873 C38.212762,0.00807327075 37.5750592,0.166163256 37.0154336,0.478897967 C36.5151091,0.757642483 36.1010695,1.16081962 35.8163057,1.64656628 C35.554946,2.08396533 35.4141389,2.57894576 35.4073787,3.0840705 C35.4078742,3.35508632 35.4508182,3.62446622 35.5347494,3.88304409 C35.641599,4.18593856 35.7986723,4.47001579 35.99982,4.72415423 C36.2959251,5.08948297 36.6450512,5.41153366 37.0363827,5.68032953 C37.609951,6.07844166 38.2226667,6.42096822 38.8656604,6.70295091 C39.3642496,6.92011615 39.8226164,7.13322979 40.2214878,7.33337835 C40.5711694,7.50226298 40.9038739,7.70218979 41.2153143,7.93058275 C41.4737948,8.12419395 41.687577,8.36790775 41.8429501,8.64609359 C41.9981176,8.94128271 42.0760891,9.26875368 42.0700386,9.59983794 C42.0831221,10.2033282 41.8214815,10.7819291 41.3544165,11.1823891 C40.8910219,11.5875481 40.2784694,11.7974205 39.5343565,11.7974205 C38.706447,11.7974205 37.9941768,11.5737727 37.4159809,11.1321494 C36.8759275,10.7257197 36.436248,10.2080934 36.1288666,9.61685462 C35.8833428,9.14000869 35.6838976,8.64224922 35.5330735,8.12992099 L35.4073787,8.12992099 L35.4073787,11.5421703 L35.5070966,11.5421703 C35.5918127,11.1985715 35.7084856,10.8630843 35.85569,10.5398069 L36.1330564,9.91991357 L36.5679603,10.4482409 C36.9759947,10.9493299 37.5048148,11.346075 38.10814,11.6037545 C38.6893937,11.8584892 39.3193885,11.9926422 39.9575288,11.997569 C40.5170518,12.0105856 41.0722452,11.8997181 41.5806671,11.6734418 C42.0237146,11.4701346 42.418113,11.1798176 42.7387347,10.8209872 C43.0329857,10.4904468 43.2680588,10.1146884 43.4342457,9.70923087 C43.5762798,9.36867381 43.6529489,9.00593872 43.6604997,8.63880073 C43.6613342,8.03916537 43.5079866,7.54973327 43.1929118,7.1380917 Z" transform="translate(31 4)"/>
    <path d="M53.0767092,1.1222905 C53.2074318,0.819231548 53.4688769,0.593152812 53.8543408,0.4489162 C54.1620205,0.345634267 54.4840962,0.287988796 54.8096209,0.277939091 L54.8096209,0.243095415 L49.1726302,0.243095415 L49.1726302,0.281180363 C49.871493,0.319265312 50.328184,0.459450334 50.5971707,0.71470052 C50.9122456,1.01532852 51.0655932,1.47883044 51.0655932,2.13113647 L51.0655932,9.88588021 C51.0655932,10.3129178 51.0136393,10.6427173 50.9072178,10.8947262 C50.7764952,11.202647 50.5133742,11.4303464 50.1253964,11.5713418 C49.8181083,11.6705398 49.4973143,11.7251542 49.1734682,11.7334054 L49.1734682,11.7714903 L54.8138107,11.7714903 L54.8138107,11.7334054 C54.4750378,11.725647 54.1399867,11.663203 53.8224981,11.5486528 C53.4496037,11.3955027 53.1973762,11.1637518 53.0733574,10.8598825 C52.9619189,10.5474237 52.9107923,10.2178255 52.9225237,9.88750084 L52.9225237,2.13356743 C52.9183338,1.7016679 52.9702877,1.37186846 53.0767092,1.1222905 Z" transform="translate(31 4)"/>
    <path d="M68.4072793,7.1380917 C68.0732873,6.70262804 67.655975,6.33319417 67.1779847,6.04983456 C66.4760899,5.64781069 65.7530688,5.28132304 65.0118451,4.9518536 C64.2308617,4.59855493 63.6535038,4.32142616 63.2973686,4.12938078 C62.9239887,3.93349718 62.5949131,3.6673509 62.329519,3.34661355 C62.0574606,3.00931858 61.9131363,2.59206063 61.9205921,2.16435951 C61.9066302,1.61947677 62.1480931,1.09768394 62.5775567,0.744682288 C62.9965392,0.391383618 63.5462442,0.212303329 64.2124264,0.212303329 C65.8816528,0.212303329 67.0832946,1.15794449 67.7863473,3.02410696 L67.9539403,3.02410696 L67.9539403,0.39462489 L67.8274076,0.39462489 C67.7640365,0.67754925 67.6754397,0.954633357 67.5626106,1.22276994 L67.2994896,1.82321561 L66.8612339,1.32649065 C66.5106142,0.925969025 66.0788407,0.599171995 65.5925548,0.366263759 C65.1210615,0.139499918 64.6015896,0.0216139359 64.0750002,0.0218785873 C63.4288104,0.00811494206 62.7911191,0.166202092 62.2314771,0.478897967 C61.731209,0.757441035 61.3173919,1.16068333 61.0331871,1.64656628 C60.7718275,2.08396533 60.6310203,2.57894576 60.6242602,3.0840705 C60.6248802,3.35501551 60.6675324,3.62433744 60.7507929,3.88304409 C60.857982,4.18595637 61.0153332,4.47002425 61.2167015,4.72415423 C61.5123853,5.08985236 61.8615709,5.41195796 62.2532642,5.68032953 C62.8268325,6.07844166 63.4395482,6.42096822 64.0825419,6.70295091 C64.5802931,6.92011615 65.03866,7.13322979 65.4375313,7.33337835 C65.7874349,7.50187857 66.1201755,7.70182708 66.4313578,7.93058275 C66.6901414,8.12411033 66.9042142,8.36783008 67.0598316,8.64609359 C67.214999,8.94128271 67.2929705,9.26875368 67.2869201,9.59983794 C67.3000036,10.2033282 67.038363,10.7819291 66.571298,11.1823891 C66.1079033,11.5875481 65.4953509,11.7974205 64.7504,11.7974205 C63.9233285,11.7974205 63.2102203,11.5737727 62.6320244,11.1321494 C62.0925308,10.725378 61.6531945,10.2078189 61.3457481,9.61685462 C61.1002242,9.14000869 60.9007791,8.64224922 60.749955,8.12992099 L60.6242602,8.12992099 L60.6242602,11.5421703 L60.723978,11.5421703 C60.8083108,11.1984653 60.9249952,10.8629449 61.0725715,10.5398069 L61.3499379,9.91991357 L61.7848418,10.4482409 C62.192568,10.9492958 62.7211094,11.3460477 63.3241835,11.6037545 C63.9057264,11.8585082 64.5359983,11.9926594 65.1744103,11.997569 C65.7339332,12.0105856 66.2891267,11.8997181 66.7975485,11.6734418 C67.240475,11.4703247 67.6346372,11.1799714 67.9547782,10.8209872 C68.249324,10.4906536 68.4844287,10.114845 68.6502892,9.70923087 C68.7927214,9.36878985 68.8694057,9.00598305 68.8765398,8.63880073 C68.8748638,8.03916537 68.7240301,7.54973327 68.4072793,7.1380917 Z" transform="translate(31 4)"/>
    <path d="M93.7892399,11.4919306 C93.4890473,11.3230791 93.2446477,11.0752212 93.0845113,10.7772301 C92.9445712,10.5227902 92.7350799,10.058478 92.4443061,9.35917348 L88.660894,0 L88.3407913,0 L84.7643566,9.05854548 C84.5603977,9.6023736 84.3080633,10.1280777 84.0101881,10.6297522 C83.7453911,11.0519279 83.4638349,11.3363495 83.149598,11.5000338 C82.9403658,11.6070941 82.7135691,11.6783712 82.479226,11.7107165 L82.479226,11.7666284 L86.0363875,11.7666284 L86.0363875,11.7204403 C85.7851003,11.6994585 85.537281,11.6496802 85.2981403,11.5721521 C85.0291536,11.4822068 84.5774904,11.2237153 84.5774904,10.49686 C84.5774904,10.2416098 84.6696666,9.88669053 84.8682643,9.38024174 L85.2805431,8.31791478 L89.9949343,8.31791478 L90.7030147,10.0284962 C90.7950188,10.2529918 90.8433149,10.4919996 90.8454688,10.7334729 C90.8454688,11.171855 90.6108386,11.4943615 90.2027496,11.6167196 C89.9364846,11.6866518 89.6624142,11.7250183 89.3865717,11.7309744 L89.3865717,11.7666284 L94.5626816,11.7666284 L94.5626816,11.717199 C94.2914943,11.6948307 94.0280923,11.6181137 93.7892399,11.4919306 L93.7892399,11.4919306 Z M85.329983,8.23931393 L87.6008682,2.40502397 L89.9865546,8.23931393 L85.329983,8.23931393 Z" transform="translate(31 4)"/>
    <path d="M111.870849,11.4943615 C111.600187,11.3614694 111.324496,11.1289081 111.027018,10.7812817 C110.666164,10.342664 110.330473,9.88522695 110.02146,9.41103383 C109.351088,8.39408468 108.848309,7.69072861 108.540776,7.31879263 C108.247378,6.96823689 107.890455,6.67224027 107.487454,6.44526977 L106.630216,5.95907894 L107.590524,5.70707002 C108.206428,5.54500642 108.704179,5.32703086 109.069532,5.05881559 C109.396479,4.82910883 109.660063,4.52524822 109.837108,4.17394827 C109.993896,3.85114013 110.075697,3.49905208 110.076766,3.1424134 C110.087209,2.68278774 109.969087,2.22896666 109.734876,1.82888784 C109.511904,1.45784552 109.202624,1.14212401 108.83155,0.906745898 C108.458975,0.66972429 108.048415,0.49394273 107.616501,0.38652171 C107.206613,0.288666763 106.789426,0.222016744 106.368771,0.18718347 C105.829121,0.133702478 105.24087,0.098048484 104.619938,0.0802214869 C104.172465,0.0680667162 103.850686,0.0623944898 103.662982,0.0623944898 C103.42081,0.0623944898 103.150147,0.0623944898 102.857697,0.0713079884 C102.565248,0.0802214869 102.316372,0.0858937133 102.095987,0.098048484 L102.085932,0.098048484 L99.536842,0.179080289 L99.536842,0.247957323 C100.226487,0.287662908 100.675636,0.432709839 100.932892,0.696063205 C101.227855,0.998311837 101.371985,1.45695185 101.371985,2.09791343 L101.371985,9.88588021 C101.371985,10.5341346 101.222828,10.9984469 100.91697,11.2982646 C100.655525,11.5551354 100.212242,11.6961307 99.536842,11.7358363 L99.536842,11.7739213 L105.098416,11.7739213 L105.098416,11.735026 C104.771546,11.7235526 104.448592,11.6622962 104.14146,11.5535148 C103.746778,11.3995543 103.487847,11.1588899 103.37137,10.8396246 C103.270753,10.5313882 103.224577,10.2089578 103.234782,9.88588021 L103.234782,6.25889662 L104.133918,6.25889662 C104.784179,6.25889662 105.241708,6.29455061 105.532482,6.36747924 C105.884861,6.46026969 106.197655,6.65889274 106.425752,6.93470187 C106.638596,7.17779729 106.938587,7.61050712 107.343324,8.25389966 L108.20978,9.63792288 L108.686582,10.3817949 L108.752781,10.4847052 C108.9673,10.8193666 109.166736,11.1143224 109.346899,11.3622797 C109.46589,11.5243433 109.571473,11.663718 109.662811,11.7723006 L112.465804,11.7723006 L112.465804,11.6912688 C112.259277,11.6516415 112.059175,11.5854158 111.870849,11.4943615 Z M104.245367,6.05550679 L103.233106,6.05550679 L103.233106,0.285231954 L103.652088,0.285231954 C103.74594,0.285231954 103.829737,0.285231954 103.903478,0.285231954 C103.987274,0.285231954 104.104589,0.280370045 104.246205,0.280370045 C105.308745,0.280370045 106.190284,0.458640016 106.86736,0.811128368 C107.62907,1.20737389 108.015372,1.98527922 108.015372,3.1245864 C108.015372,4.38057938 107.610635,5.20467283 106.812054,5.57336755 C106.114867,5.89182254 105.250926,6.05550679 104.245367,6.05550679 Z" transform="translate(31 4)"/>
    <path d="M116.226591,0.243095415 L116.226591,2.93659261 L116.310388,2.93659261 C116.380777,2.27942467 116.545856,1.7778378 116.813167,1.41157404 C117.139135,0.963468161 117.532979,0.682287798 117.986318,0.576946451 C118.454334,0.479963583 118.932292,0.435104109 119.410859,0.443243973 L121.18483,0.443243973 L121.18483,9.88588021 C121.18483,10.5341346 121.033997,11.0000675 120.723112,11.3006955 C120.459153,11.5559457 120.011679,11.696941 119.331252,11.7358363 L119.331252,11.7739213 L124.892826,11.7739213 L124.892826,11.735026 C124.566662,11.7238427 124.244446,11.6622917 123.938384,11.5527044 C123.551244,11.3995543 123.294826,11.1661827 123.177511,10.8590722 C123.083659,10.6159768 123.038409,10.2918496 123.038409,9.88669053 L123.038409,0.440002701 L125.07634,0.440002701 C125.473983,0.434861314 125.870456,0.482853417 126.254519,0.582618678 C126.655066,0.693632251 127.020419,0.97238166 127.343873,1.41157404 C127.609508,1.77378621 127.790509,2.27375245 127.893578,2.93335134 L128,2.93335134 L128,0.243095415 L116.226591,0.243095415 Z" transform="translate(31 4)"/>
  </g>
</svg>
